<?xml version="1.0" standalone="no"?>
<!DOCTYPE svg PUBLIC "-//W3C//DTD SVG 20010904//EN"
 "http://www.w3.org/TR/2001/REC-SVG-20010904/DTD/svg10.dtd">
<svg version="1.0" xmlns="http://www.w3.org/2000/svg"
 width="260.000000pt" height="260.000000pt" viewBox="0 0 260.000000 260.000000"
 preserveAspectRatio="xMidYMid meet">
<metadata>
Created by potrace 1.11, written by Peter Selinger 2001-2013
</metadata>
<g transform="translate(0.000000,260.000000) scale(0.100000,-0.100000)"
fill="#000000" stroke="none">
<path d="M0 1300 l0 -1300 1300 0 1300 0 0 1300 0 1300 -1300 0 -1300 0 0
-1300z m2141 760 c18 -10 19 -27 19 -560 l0 -550 130 0 c188 0 220 -17 220
-119 0 -38 -6 -56 -24 -78 l-24 -28 -427 0 -427 0 -24 28 c-18 22 -24 40 -24
78 0 102 32 119 220 119 l130 0 0 444 0 444 -94 4 c-83 3 -97 6 -120 27 -32
30 -42 81 -27 132 19 63 38 68 259 69 115 0 201 -4 213 -10z m-1394 -371 c24
-11 51 -32 62 -45 l19 -24 52 35 c66 45 119 58 201 53 108 -8 167 -54 207
-160 13 -35 17 -97 20 -320 l4 -276 33 -6 c51 -10 75 -47 75 -115 -1 -97 -25
-111 -190 -111 -67 0 -130 5 -141 10 -18 10 -19 25 -20 338 0 354 -4 385 -52
412 -24 13 -30 13 -54 0 -15 -8 -36 -31 -47 -50 -19 -32 -21 -55 -24 -256 l-4
-220 39 -10 c52 -12 76 -59 69 -129 -4 -37 -12 -56 -31 -73 -24 -20 -36 -22
-154 -22 -86 0 -133 4 -144 13 -15 11 -17 49 -19 352 -3 306 -5 344 -21 368
-35 53 -103 42 -141 -23 -19 -32 -21 -55 -24 -256 l-4 -221 36 -7 c52 -10 76
-46 76 -115 -1 -101 -21 -111 -229 -111 -96 0 -170 4 -184 11 -32 15 -47 49
-47 108 0 60 27 98 75 107 l35 6 0 248 0 248 -35 6 c-52 10 -75 46 -75 117 0
45 5 64 20 79 28 28 50 31 175 28 l110 -3 17 -35 c10 -19 18 -30 18 -24 0 16
66 65 109 80 56 20 138 17 188 -7z"/>
</g>
</svg>
